# xmcd CD database file
#
# Track frame offsets:
#	150
#	21739
#	46374
#	66329
#	97569
#	124685
#	140947
#	175835
#	205317
#
# Disc length: 2979 seconds
#
# Revision: 0
# Processed by: cddbd v1.4PL0 Copyright (c) Steve Scherf et al.
# Submitted via: CDex 1.50
#
DISCID=840ba109
DTITLE=La Cornetita - La Cornetita
DYEAR=1999
DGENRE=Jazz
TTITLE0=El afano (Puntoriero) 
TTITLE1=La conexión turca  (Miguez)
TTITLE2=Vanesa (Alvareda) 
TTITLE3=Sumo (Vazquez)
TTITLE4=Zapatito (Vazquez)
TTITLE5=José Hernandez (Alvareda)
TTITLE6=En las malas a todas partes... (Vazquez)
TTITLE7=Yes my love (Puntoriero)
TTITLE8=El enima del dotor (Puntoriero)
EXTD=YEAR: 1999
EXTT0=
EXTT1=
EXTT2=
EXTT3=
EXTT4=
EXTT5=
EXTT6=
EXTT7=
EXTT8=
PLAYORDER=
